HIERARCHY
ROOT Hips
{
	OFFSET -0.179506 -22.333345 2.821913
	CHANNELS 6 Xposition Yposition Zposition Zrotation Yrotation Xrotation 
	JOINT LeftUpLeg
	{
		OFFSET 6.951974 -9.140623 -0.681533
		CHANNELS 3 Zrotation Yrotation Xrotation
		JOINT LeftLeg
		{
			OFFSET 3.427654 -37.519855 -0.449580
			CHANNELS 3 Zrotation Yrotation Xrotation
			JOINT LeftFoot
			{
				OFFSET -1.359570 -39.796059 -4.369333
				CHANNELS 3 Zrotation Yrotation Xrotation
				JOINT LeftToe
				{
					OFFSET 2.635814 -5.579078 11.928840
					CHANNELS 3 Zrotation Yrotation Xrotation
					End Site
					{
						OFFSET 0.000000 0.000000 0.000000
					}
				}
			}
		}
	}
	JOINT RightUpLeg
	{
		OFFSET -6.767048 -9.052170 -0.431982
		CHANNELS 3 Zrotation Yrotation Xrotation
		JOINT RightLeg
		{
			OFFSET -3.829005 -38.256897 -0.885003
			CHANNELS 3 Zrotation Yrotation Xrotation
			JOINT RightFoot
			{
				OFFSET 1.577377 -39.841461 -4.231180
				CHANNELS 3 Zrotation Yrotation Xrotation
				JOINT RightToe
				{
					OFFSET -2.537174 -4.814398 12.334795
					CHANNELS 3 Zrotation Yrotation Xrotation
					End Site
					{
						OFFSET 0.000000 0.000000 0.000000
					}
				}
			}
		}
	}
	JOINT Spine
	{
		OFFSET -0.253288 10.896323 -2.669631
		CHANNELS 3 Zrotation Yrotation Xrotation
		JOINT Spine1
		{
			OFFSET 0.548704 13.518043 0.109247
			CHANNELS 3 Zrotation Yrotation Xrotation
			JOINT Spine2
			{
				OFFSET 0.145701 5.292222 2.542457
				CHANNELS 3 Zrotation Yrotation Xrotation
				JOINT Neck
				{
					OFFSET -0.277840 21.387037 -4.285703
					CHANNELS 3 Zrotation Yrotation Xrotation
					JOINT Head
					{
						OFFSET 0.515184 6.496960 5.134897
						CHANNELS 3 Zrotation Yrotation Xrotation
						End Site
						{
							OFFSET 0.000000 0.000000 0.000000
						}
					}
				}
				JOINT LeftShoulder
				{
					OFFSET 7.884473 12.174932 -3.408961
					CHANNELS 3 Zrotation Yrotation Xrotation
					JOINT LeftArm
					{
						OFFSET 9.097692 3.046888 -0.886815
						CHANNELS 3 Zrotation Yrotation Xrotation
						JOINT LeftForeArm
						{
							OFFSET 25.961220 -1.277207 -2.745643
							CHANNELS 3 Zrotation Yrotation Xrotation
							JOINT LeftHand
							{
								OFFSET 24.923361 0.898606 -0.117091
								CHANNELS 3 Zrotation Yrotation Xrotation
								End Site
								{
									OFFSET 0.000000 0.000000 0.000000
								}
							}
						}
					}
				}
				JOINT RightShoulder
				{
					OFFSET -8.175920 11.883285 -3.861528
					CHANNELS 3 Zrotation Yrotation Xrotation
					JOINT RightArm
					{
						OFFSET -9.601238 3.255117 -0.914307
						CHANNELS 3 Zrotation Yrotation Xrotation
						JOINT RightForeArm
						{
							OFFSET -25.374195 -1.332924 -2.140099
							CHANNELS 3 Zrotation Yrotation Xrotation
							JOINT RightHand
							{
								OFFSET -25.529810 0.777228 -0.555919
								CHANNELS 3 Zrotation Yrotation Xrotation
								End Site
								{
									OFFSET 0.000000 0.000000 0.000000
								}
							}
						}
					}
				}
			}
		}
	}
}
MOTION
Frames: 18
Frame Time: 0.033333
133.707718 115.143608 8.337698 178.517542 1.003260 178.274647 15.327600 6.591646 0.864119 -11.518527 -4.596688 13.433376 -7.752050 2.842970 -18.769527 nan nan nan -18.143410 -4.210448 -3.534072 8.941839 11.301380 15.927628 17.032229 11.846610 -7.090801 nan nan nan 1.903607 0.396234 0.015464 -1.312354 -4.258924 -3.827107 -1.379646 -1.213183 -0.852667 -4.410933 10.519086 -3.271203 -1.325053 -2.113399 -26.864818 9.473169 -6.277814 -8.353583 -4.466700 -4.239241 -17.833007 111.789837 -38.633196 -95.867896 -4.899587 -32.161477 -15.235180 -14.426719 12.313502 -10.885037 -3.440424 19.848208 -31.200871 -96.962967 52.750733 -86.765304 1.959016 23.028874 -15.758843 
133.710831 115.140427 8.321861 178.529143 0.994077 178.295413 15.320666 6.534408 0.850551 -11.494566 -4.576316 13.399936 -7.766070 2.823631 -18.767585 nan nan nan -18.088918 -4.183408 -3.538502 8.879843 11.272510 15.908328 17.224859 11.782586 -6.957157 nan nan nan 1.900756 0.407948 -0.045809 -1.297844 -4.247438 -3.770591 -1.390805 -1.223186 -0.794346 -4.170622 10.543893 -3.257440 -1.275692 -2.276017 -26.288621 9.570250 -6.220625 -8.469932 -4.592218 -4.362789 -17.780487 111.877155 -38.637758 -95.733364 -4.786701 -32.674379 -15.116964 -14.458074 12.216501 -11.120334 -3.339988 19.990132 -31.032419 -96.848467 52.741619 -86.611658 1.864995 23.163507 -15.839189 
133.719025 115.135597 8.309675 178.559640 0.990389 178.303034 15.336099 6.520373 0.805161 -11.464177 -4.565473 13.452474 -7.756152 2.796971 -18.814309 nan nan nan -18.028781 -4.176884 -3.547602 8.832309 11.201243 15.924562 17.409085 11.800883 -6.882887 nan nan nan 1.899750 0.409811 -0.023466 -1.283668 -4.229250 -3.705231 -1.257635 -1.245099 -0.939089 -4.034466 10.328930 -2.845614 -1.400929 -2.358110 -26.276440 9.503493 -6.257144 -8.416686 -4.679047 -4.363860 -17.819512 111.994955 -38.709977 -95.674950 -4.381393 -33.326282 -14.783542 -14.698172 12.237694 -11.119014 -3.214588 19.959573 -31.052350 -96.800726 52.800823 -86.463748 1.624574 23.394377 -16.095782 
133.721283 115.149078 8.308351 178.566520 0.995551 178.301222 15.347981 6.515735 0.801532 -11.471722 -4.559967 13.472670 -7.759967 2.817296 -18.825450 nan nan nan -18.017831 -4.178666 -3.556583 8.820445 11.222920 15.928373 17.179227 11.810707 -7.069635 nan nan nan 1.896510 0.405158 -0.003542 -1.291337 -4.216582 -3.673200 -1.271155 -1.236955 -0.933015 -3.979613 10.326019 -2.891553 -1.370483 -2.360621 -26.139531 9.542449 -6.157731 -8.465539 -4.684736 -4.512995 -17.818874 111.953006 -38.716780 -95.580757 -4.334408 -33.144791 -14.701832 -14.646224 12.120837 -11.148458 -3.224728 20.020682 -31.031106 -96.872289 52.796152 -86.553561 1.609539 23.341460 -16.060875 
133.679321 115.131294 8.296539 178.566534 0.877464 178.273611 15.333685 6.455880 0.754897 -11.488904 -4.556349 13.542107 -7.736467 2.772012 -18.895054 nan nan nan -18.085143 -4.325730 -3.490898 8.895261 11.219672 15.928951 17.313652 11.853318 -6.985140 nan nan nan 1.970783 0.386431 0.013269 -1.319920 -4.275497 -3.573843 -1.381936 -1.265331 -0.875282 -3.833148 10.263571 -2.848470 -1.203477 -2.262841 -25.795202 9.665728 -5.956794 -8.576870 -4.734676 -4.786788 -17.814344 111.864997 -38.680641 -95.465872 -4.280766 -32.564640 -14.790322 -14.533805 11.931633 -11.161679 -3.368441 20.107977 -31.076971 -96.909847 52.780736 -86.754953 1.655177 23.256765 -15.909936 
133.663818 115.125076 8.280875 178.559376 0.840775 178.230278 15.322196 6.481926 0.773380 -11.479613 -4.586506 13.550280 -7.749458 2.741448 -18.874507 nan nan nan -18.130047 -4.402186 -3.444844 8.936388 11.219379 15.931664 17.233116 11.944803 -7.050651 nan nan nan 1.996951 0.403118 0.053196 -1.355937 -4.283075 -3.478184 -1.406675 -1.309644 -0.918840 -3.738480 10.256886 -2.537854 -1.179485 -2.226312 -25.761074 9.721764 -5.853106 -8.545629 -4.777448 -4.914159 -17.885462 111.859829 -38.704994 -95.373502 -4.227925 -32.585656 -14.737925 -14.540270 11.872145 -11.100814 -3.400001 20.153840 -31.182100 -96.854546 52.766378 -86.680314 1.665346 23.370774 -16.013357 
133.667938 115.123650 8.281178 178.557706 0.844678 178.227999 15.320867 6.494763 0.778194 -11.473231 -4.595473 13.538207 -7.758279 2.749795 -18.850743 nan nan nan -18.120455 -4.402119 -3.450849 8.929109 11.229911 15.925222 17.188907 11.950879 -7.067925 nan nan nan 1.985048 0.413491 0.056435 -1.357977 -4.270985 -3.496447 -1.407830 -1.298486 -0.877069 -3.725666 10.292410 -2.490332 -1.148905 -2.216927 -25.761283 9.741693 -5.846801 -8.549696 -4.795043 -4.966500 -17.889422 111.846253 -38.703526 -95.361904 -4.209946 -32.601522 -14.839466 -14.545213 11.846050 -11.106104 -3.371223 20.151984 -31.191368 -96.872116 52.741749 -86.661572 1.665116 23.363704 -16.037548 
133.742996 115.120720 8.289256 178.521625 1.065529 178.232311 15.354341 6.675436 0.913613 -11.510675 -4.603393 13.427859 -7.767102 2.777947 -18.798463 nan nan nan -18.050950 -4.245113 -3.555411 8.859518 11.336490 15.973334 16.970171 11.922137 -7.163046 nan nan nan 1.814276 0.431095 -0.002425 -1.321187 -4.169834 -3.459358 -1.387396 -1.198393 -0.801606 -3.625293 10.500425 -2.394137 -1.063495 -2.264201 -25.644129 9.809332 -5.845020 -8.550154 -4.753333 -4.981869 -17.872358 111.708384 -38.627267 -95.252344 -4.660365 -32.542425 -15.106151 -14.526362 11.832079 -11.110843 -3.216939 20.199245 -31.087541 -96.990844 52.526310 -86.576535 1.774715 23.284730 -16.130648 
133.740189 115.110062 8.307668 178.521732 0.996452 178.231434 15.348388 6.628792 0.875828 -11.536203 -4.650151 13.456463 -7.696988 2.780260 -18.828349 nan nan nan -18.072412 -4.247854 -3.516595 8.892991 11.335118 15.948015 16.877196 11.852131 -7.187738 nan nan nan 1.817268 0.409715 0.001800 -1.289706 -4.218254 -3.352771 -1.386754 -1.206093 -0.819535 -3.575203 10.452955 -2.345766 -1.082674 -2.234429 -25.444857 9.832494 -5.827588 -8.448904 -4.806283 -4.929012 -17.945201 111.695693 -38.497838 -95.283558 -5.079179 -32.296811 -15.069035 -14.624671 11.783264 -11.053585 -3.224509 20.216880 -31.135400 -96.989239 52.369224 -86.605797 1.939433 23.196963 -16.061902 
133.740616 115.102791 8.312201 178.514727 0.942867 178.225291 15.332141 6.590495 0.850885 -11.549702 -4.628427 13.495098 -7.684194 2.747035 -18.858955 nan nan nan -18.108019 -4.274020 -3.469699 8.913879 11.278848 15.919911 17.131631 11.842704 -7.014070 nan nan nan 1.806706 0.399048 -0.018253 -1.266455 -4.260174 -3.351012 -1.415846 -1.192836 -0.698378 -3.550345 10.517394 -2.337539 -1.036859 -2.158774 -25.337437 9.877912 -5.815285 -8.443950 -4.800180 -4.969152 -17.991775 111.799222 -38.433918 -95.488789 -4.939289 -32.249123 -15.192616 -14.622216 11.766824 -10.994092 -3.330610 20.152833 -31.233165 -96.987041 52.281908 -86.656690 1.961276 23.110131 -15.852588 
133.749344 115.102448 8.311736 178.506102 0.957196 178.230441 15.316480 6.582877 0.852007 -11.544827 -4.604078 13.487508 -7.725662 2.732857 -18.841912 nan nan nan -18.114455 -4.274648 -3.481395 8.902576 11.249622 15.910341 17.391948 11.848395 -6.856028 nan nan nan 1.788562 0.413759 -0.052364 -1.263151 -4.252785 -3.361183 -1.448801 -1.165281 -0.574691 -3.479940 10.523506 -2.392859 -1.018913 -2.159391 -25.348400 9.832236 -5.867630 -8.541109 -4.612410 -5.009937 -18.013690 111.829271 -38.451338 -95.548604 -4.603264 -32.358328 -15.281173 -14.578293 11.810727 -10.969692 -3.426069 19.989653 -31.305652 -97.011682 52.265013 -86.546004 1.825761 23.126380 -15.621538 
133.752060 115.112167 8.298954 178.535606 0.980202 178.214325 15.330136 6.552514 0.906248 -11.502119 -4.593181 13.421823 -7.762966 2.758741 -18.847842 nan nan nan -18.067531 -4.226817 -3.467135 8.873174 11.237865 15.870583 17.258997 11.868812 -6.930806 nan nan nan 1.803622 0.440376 -0.035771 -1.266338 -4.194815 -3.247624 -1.405886 -1.157233 -0.614670 -3.379197 10.491719 -2.422925 -1.085544 -2.284967 -25.474728 9.778854 -5.908094 -8.624656 -4.610346 -5.040677 -17.958451 111.859091 -38.439824 -95.488549 -4.293292 -32.760792 -15.207942 -14.631597 11.814346 -11.033997 -3.396781 19.842720 -31.275740 -97.103941 52.281168 -86.419605 1.572573 23.312128 -15.546400 
133.750336 115.119179 8.287236 178.557901 0.975470 178.208184 15.345559 6.518803 0.935279 -11.473705 -4.571760 13.374499 -7.746976 2.744348 -18.862986 nan nan nan -18.033774 -4.203771 -3.457615 8.849319 11.215677 15.845896 17.115686 11.907066 -7.021991 nan nan nan 1.826488 0.420017 -0.005290 -1.285405 -4.167164 -3.193725 -1.379473 -1.160744 -0.640785 -3.312622 10.598240 -2.260083 -1.078647 -2.367314 -25.697327 9.825599 -5.846480 -8.701385 -4.726151 -5.094076 -17.912731 111.876962 -38.405318 -95.351275 -4.217217 -33.146949 -14.970297 -14.774639 11.726337 -11.091291 -3.174931 19.852165 -31.186818 -97.221539 52.211176 -86.485949 1.436356 23.463700 -15.756119 
133.748444 115.119225 8.279663 178.562282 0.974959 178.216258 15.374220 6.521267 0.925957 -11.519902 -4.566207 13.368060 -7.708465 2.746486 -18.855463 nan nan nan -18.035952 -4.209196 -3.470588 8.876408 11.234996 15.846606 17.084843 11.918745 -7.013415 nan nan nan 1.851217 0.378893 0.028947 -1.317904 -4.144450 -3.252731 -1.402886 -1.135808 -0.574978 -3.248892 10.660511 -2.117068 -1.063275 -2.337687 -25.847268 9.902070 -5.761616 -8.773744 -4.795552 -5.234206 -17.870571 111.831748 -38.406302 -95.210267 -4.079357 -33.106013 -14.951083 -14.964115 11.556095 -11.128078 -2.831006 19.957018 -31.111930 -97.383954 52.122398 -86.766170 1.352346 23.381368 -16.263939 
133.698334 115.114502 8.256599 178.572712 0.851001 178.188256 15.345075 6.465345 0.878554 -11.513289 -4.611940 13.418687 -7.680909 2.765044 -18.879536 nan nan nan -18.089092 -4.320929 -3.347343 8.912538 11.231263 15.740335 17.132414 11.909651 -6.973710 nan nan nan 1.990296 0.363806 0.138780 -1.358260 -4.164869 -3.363627 -1.509579 -1.149011 -0.491491 -3.270784 10.599185 -2.140045 -1.011102 -2.255105 -25.819227 9.913215 -5.737833 -8.778837 -4.771669 -5.338603 -17.914241 111.800798 -38.460685 -95.166341 -3.905840 -33.052318 -15.125831 -15.071336 11.395960 -11.201821 -2.694689 19.969704 -31.123000 -97.444845 52.151604 -86.948739 1.364308 23.347377 -16.462437 
133.683716 115.105537 8.240221 178.574807 0.812195 178.175780 15.336116 6.481619 0.842656 -11.498396 -4.612456 13.474612 -7.669724 2.750973 -18.828125 nan nan nan -18.107292 -4.370146 -3.302638 8.945860 11.265918 15.719105 17.073225 11.874820 -7.060488 nan nan nan 2.100110 0.378176 0.222730 -1.362857 -4.156053 -3.476565 -1.657485 -1.167058 -0.438277 -3.361895 10.549833 -2.139151 -0.867064 -2.205906 -25.742729 9.921890 -5.801712 -8.720052 -4.629719 -5.285832 -18.016607 111.663247 -38.469273 -95.089643 -4.446997 -32.798226 -15.198729 -15.095581 11.305258 -11.288405 -2.630022 19.984246 -31.142125 -97.472259 52.235875 -87.015654 1.618049 23.248549 -16.339555 
133.662674 115.093178 8.248480 178.577623 0.731241 178.182760 15.326087 6.438874 0.756908 -11.500844 -4.621200 13.537089 -7.660594 2.749447 -18.769638 nan nan nan -18.133336 -4.442683 -3.290837 8.992764 11.286489 15.735492 16.958771 11.855730 -7.122224 nan nan nan 2.170515 0.405392 0.237206 -1.374940 -4.187518 -3.467907 -1.739425 -1.200826 -0.396459 -3.401347 10.525182 -2.167566 -0.811138 -2.161433 -25.719811 9.980020 -5.853030 -8.666621 -4.608970 -5.285880 -18.127731 111.603439 -38.396100 -95.036691 -4.816768 -32.399553 -15.234168 -15.137540 11.254669 -11.301984 -2.608354 19.959883 -31.197253 -97.488940 52.209803 -87.054382 1.779336 23.160727 -16.248259 
133.819229 115.103203 8.236985 178.486105 1.267471 178.159730 15.386866 6.759202 1.125205 -11.569260 -4.550715 13.294080 -7.748316 2.820969 -18.754063 nan nan nan -18.026538 -4.095807 -3.490116 8.834647 11.382299 15.871464 16.890554 11.951572 -7.153294 nan nan nan 1.719058 0.451239 0.130109 -1.314783 -4.004266 -3.212241 -1.525647 -1.082492 -0.507850 -3.201374 10.855950 -2.000135 -0.905890 -2.145995 -25.844951 10.119198 -5.636050 -8.647271 -4.669480 -5.290420 -18.101047 111.694635 -38.359340 -95.101496 -4.526587 -32.413394 -15.355566 -14.978728 11.307612 -11.155835 -2.605070 20.164144 -31.233787 -97.545591 52.079059 -86.898950 1.549743 23.164113 -16.342519 
